HIERARCHY
ROOT locator2
{
  OFFSET 53.6172 30.1899 0.816905
  CHANNELS 6 Xposition Yposition Zposition Zrotation Xrotation Yrotation
  JOINT koshi
  {
    OFFSET 0 0 0
    CHANNELS 6 Xposition Yposition Zposition Zrotation Xrotation Yrotation
    JOINT sippo01
    {
      OFFSET 0 42.8363 -0.548134
      CHANNELS 6 Xposition Yposition Zposition Zrotation Xrotation Yrotation
      JOINT sippo02
      {
        OFFSET 0 44.0461 -3.28882
        CHANNELS 6 Xposition Yposition Zposition Zrotation Xrotation Yrotation
        JOINT sippo03
        {
          OFFSET 0 34.1929 -2.46662
          CHANNELS 6 Xposition Yposition Zposition Zrotation Xrotation Yrotation
          JOINT sippo04
          {
            OFFSET 0 30.0959 -1.75404
            CHANNELS 6 Xposition Yposition Zposition Zrotation Xrotation Yrotation
            JOINT sippo05
            {
              OFFSET 0 28.3637 -1.75404
              CHANNELS 6 Xposition Yposition Zposition Zrotation Xrotation Yrotation
              JOINT sippo06
              {
                OFFSET 0 31.6071 -3.2043
                CHANNELS 6 Xposition Yposition Zposition Zrotation Xrotation Yrotation
                End Site
                {
                  OFFSET 0 0 0
                }
              }
            }
          }
        }
      }
    }
    JOINT R_momo
    {
      OFFSET -27.891 13.5892 3.92723
      CHANNELS 6 Xposition Yposition Zposition Zrotation Xrotation Yrotation
      JOINT R_hiza
      {
        OFFSET 0 28.01 1.8232
        CHANNELS 6 Xposition Yposition Zposition Zrotation Xrotation Yrotation
        JOINT R_ashi
        {
          OFFSET 0 24.3992 -2.49174
          CHANNELS 6 Xposition Yposition Zposition Zrotation Xrotation Yrotation
          End Site
          {
            OFFSET 0 0 0
          }
        }
      }
    }
    JOINT L_momo
    {
      OFFSET 27.891 13.5892 3.92714
      CHANNELS 6 Xposition Yposition Zposition Zrotation Xrotation Yrotation
      JOINT L_hiza
      {
        OFFSET 0 28.0098 1.82319
        CHANNELS 6 Xposition Yposition Zposition Zrotation Xrotation Yrotation
        JOINT L_ashi
        {
          OFFSET 0 24.3992 -2.49171
          CHANNELS 6 Xposition Yposition Zposition Zrotation Xrotation Yrotation
          End Site
          {
            OFFSET 0 0 0
          }
        }
      }
    }
  }
  JOINT hara
  {
    OFFSET 0 2.15392 0
    CHANNELS 6 Xposition Yposition Zposition Zrotation Xrotation Yrotation
    JOINT mune
    {
      OFFSET 0 62.0609 0.472494
      CHANNELS 6 Xposition Yposition Zposition Zrotation Xrotation Yrotation
      JOINT R_kata
      {
        OFFSET 22.6695 9.65301 -5.3622
        CHANNELS 6 Xposition Yposition Zposition Zrotation Xrotation Yrotation
        JOINT R_hiji
        {
          OFFSET 0 25.813 1.69098
          CHANNELS 6 Xposition Yposition Zposition Zrotation Xrotation Yrotation
          JOINT R_te
          {
            OFFSET 0 28.5636 -0.966307
            CHANNELS 6 Xposition Yposition Zposition Zrotation Xrotation Yrotation
            End Site
            {
              OFFSET 0 0 0
            }
          }
        }
      }
      JOINT L_kata
      {
        OFFSET -22.6695 9.65298 -5.3622
        CHANNELS 6 Xposition Yposition Zposition Zrotation Xrotation Yrotation
        JOINT L_hiji
        {
          OFFSET 0 25.813 1.69102
          CHANNELS 6 Xposition Yposition Zposition Zrotation Xrotation Yrotation
          JOINT L_te
          {
            OFFSET 0 28.5636 -0.966295
            CHANNELS 6 Xposition Yposition Zposition Zrotation Xrotation Yrotation
            End Site
            {
              OFFSET 0 0 0
            }
          }
        }
      }
      JOINT kubi
      {
        OFFSET 0 23.1438 -0.944988
        CHANNELS 6 Xposition Yposition Zposition Zrotation Xrotation Yrotation
        JOINT atama
        {
          OFFSET 0 20.8625 4.12737
          CHANNELS 6 Xposition Yposition Zposition Zrotation Xrotation Yrotation
          JOINT ago
          {
            OFFSET 0 7.552 -7.58201
            CHANNELS 6 Xposition Yposition Zposition Zrotation Xrotation Yrotation
            End Site
            {
              OFFSET 0 0 0
            }
          }
        }
      }
    }
  }
}
MOTION
Frames:	4
Frame Time:	0.0333333
0.141145 21.5955 -0.0170411 -90 -3.50835e-015 -90 0 0 0 -174.651 1.25827 0.502259 4.76837e-007 42.8363 -0.54814 2.55001 -6.14268 3.47406 -4.61936e-007 44.0461 -3.28882 -12.4013 4.13359 -3.66989 3.8147e-006 34.1929 -2.46661 -18.3945 0.626496 -1.10982 3.8147e-006 30.0959 -1.75404 -14.7356 2.14392 -0.622754 1.42109e-014 28.3637 -1.75403 9.08514 -2.10938 5.74478 2.67029e-005 31.6071 -3.2043 5.62542 -1.9855 -5.37518 -27.891 13.5892 3.92724 125.516 -22.9878 -66.82 3.8147e-006 28.01 1.8232 151.38 -88.3184 143.472 0 24.3992 -2.49173 -138.633 56.2289 -158.78 27.891 13.5892 3.92713 -108.001 -27.7735 82.2858 0 28.0098 1.82319 0.0357616 -77.434 -0.0990392 3.8147e-006 24.3992 -2.49173 129.135 61.105 156.773 6.09085e-007 2.15392 0 -2.00854 -0.0216535 -0.146406 -1.11759e-008 62.0609 0.472494 6.76728e-008 1.00178e-005 7.55262e-010 22.6695 9.65298 -5.3622 -158.116 1.98144 57.1256 7.10543e-015 25.813 1.69098 179.873 -66.7429 178.383 3.8147e-006 28.5636 -0.966311 29.4732 13.2364 -98.5226 -22.6695 9.65298 -5.3622 138.341 -4.35214 -63.5145 0 25.813 1.69101 -179.741 -74.9871 -177.796 -3.8147e-006 28.5636 -0.966297 -30.0297 31.0328 105.532 1.49012e-008 23.1438 -0.944992 12.6697 -0.499958 -29.0814 5.72205e-006 20.8625 4.12738 7.95268 10.9347 -28.1472 0 7.55202 -7.58201 -6.24293e-006 -26.2656 5.03662e-006 
-2.38766 21.9288 0.088863 -90 -3.50835e-015 -90 0 0 0 -174.121 1.53742 0.451058 4.76837e-007 42.8363 -0.54814 2.51884 -6.46158 3.53626 -4.59311e-007 44.0461 -3.28882 -6.73189 5.99312 -3.73214 1.95934e-006 34.1929 -2.46659 -8.94664 0.990464 -1.36289 9.82343e-008 30.0959 -1.75403 -6.45301 4.63486 -0.70944 -4.14841e-006 28.3637 -1.75403 11.969 -2.27862 5.81041 1.78566e-005 31.6071 -3.20431 5.82722 -2.66837 -5.68758 -27.891 13.5892 3.92724 127.834 -19.2429 -61.6999 3.8053e-006 28.01 1.8232 146.586 -88.39 137.033 -3.2043e-008 24.3992 -2.49173 -138.398 59.6606 -163.248 27.891 13.5892 3.92713 -113.993 -25.5925 77.0156 4.7152e-008 28.0098 1.82319 -0.0601542 -79.659 0.170759 3.77133e-006 24.3992 -2.49173 128.791 63.8374 159.686 6.09085e-007 2.15392 7.10543e-015 -1.80363 1.02348 -0.123819 -1.11758e-008 62.0609 0.472494 -9.95024e-006 1.00178e-005 2.44886e-008 22.6695 9.65298 -5.3622 -154.966 5.70534 49.2411 9.62746e-009 25.813 1.69098 179.865 -66.7367 178.219 3.96271e-006 28.5636 -0.96631 35.9913 9.35879 -98.8137 -22.6695 9.65298 -5.3622 137.282 -4.6429 -59.9598 -9.0614e-008 25.813 1.69101 -179.741 -75.9498 -177.862 -3.94997e-006 28.5636 -0.966297 -32.0675 31.0191 104.868 1.49007e-008 23.1438 -0.944992 10.631 0.192342 -22.1164 5.61778e-006 20.8625 4.12738 7.46259 9.04767 -20.6501 -3.71468e-007 7.55202 -7.58201 -6.41865e-006 -24.5004 5.26995e-006 
-3.8538 22.2556 0.192711 -90 -3.50835e-015 -90 0 0 0 -173.6 1.81165 0.395874 4.76837e-007 42.8363 -0.54814 2.48808 -6.77663 3.59737 -4.56717e-007 44.0461 -3.28882 -1.56144 7.79927 -4.08626 2.08754e-007 34.1929 -2.46662 -0.274289 1.33821 -1.70812 -4.41914e-006 30.0959 -1.75404 1.25805 7.06318 -1.42726 -1.14432e-005 28.3637 -1.75403 14.5116 -2.43844 5.87977 7.61901e-006 31.6071 -3.2043 6.02637 -3.33848 -5.98969 -27.891 13.5892 3.92724 127.57 -15.8821 -57.125 3.81996e-006 28.01 1.8232 141.492 -88.4482 130.204 -1.25943e-007 24.3992 -2.49172 -139.834 61.9129 -166.111 27.891 13.5892 3.92713 -117.06 -23.7904 73.5754 7.16111e-008 28.0098 1.82319 -0.0275232 -80.2401 0.850199 3.73562e-006 24.3992 -2.49173 129.096 66.2318 162.19 6.09085e-007 2.15392 7.10543e-015 -1.6026 2.04769 -0.110587 -1.11761e-008 62.0609 0.472494 6.76717e-008 1.00178e-005 7.55258e-010 22.6695 9.65298 -5.3622 -152.331 11.097 40.2467 1.01375e-008 25.813 1.69098 179.861 -66.1148 177.907 3.91387e-006 28.5636 -0.96631 45.1138 2.52638 -95.4888 -22.6695 9.65298 -5.3622 136.725 -3.13734 -55.1061 -8.30402e-008 25.813 1.69101 -179.738 -77.081 -177.901 -4.12155e-006 28.5636 -0.966297 -37.4134 30.003 106.046 1.49011e-008 23.1438 -0.944992 8.63161 0.88057 -14.5126 5.46163e-006 20.8625 4.12738 6.87692 6.57704 -12.8852 -7.17972e-007 7.55202 -7.58201 4.26811e-006 -22.7681 9.70617e-006 
-5.41276 22.5856 0.297587 -90 -3.50835e-015 -90 0 0 0 -173.074 2.08721 0.334953 4.76837e-007 42.8363 -0.54814 2.45678 -7.09715 3.65921 -4.54073e-007 44.0461 -3.28882 3.70368 9.5676 -4.77475 -1.55719e-006 34.1929 -2.46662 8.48691 1.65865 -2.16017 -9.0405e-006 30.0959 -1.75404 9.1058 8.51125 -2.67455 -1.86001e-005 28.3637 -1.75403 17.0796 -2.5906 5.96512 1.08349e-006 31.6071 -3.2043 6.22892 -4.01572 -6.29052 -27.891 13.5892 3.92724 127.096 -12.5178 -52.3561 3.83058e-006 28.01 1.8232 135.985 -88.4937 124.1 -1.89307e-007 24.3992 -2.49172 -141.803 65.4098 -168.711 27.891 13.5892 3.92713 -120.727 -22.101 69.2784 7.7633e-008 28.0098 1.82319 0.20442 -80.6325 0.0673547 3.71619e-006 24.3992 -2.49173 128.802 68.8443 164.063 6.09085e-007 2.15392 3.55271e-015 -1.39964 3.20898 -0.100735 -1.11759e-008 62.0609 0.472494 6.76728e-008 1.00178e-005 7.55257e-010 22.6695 9.65298 -5.3622 -148.942 14.962 29.011 2.18746e-007 25.813 1.69098 179.849 -66.5851 177.213 3.54652e-006 28.5636 -0.96631 55.687 -2.5096 -96.485 -22.6695 9.65298 -5.3622 136.118 -2.00709 -49.5955 -1.15028e-007 25.813 1.69101 -179.729 -78.6052 -178.045 -4.24257e-006 28.5636 -0.966297 -42.6681 28.7076 107.116 1.49011e-008 23.1438 -0.944992 6.73365 1.86 -7.93172 5.28928e-006 20.8625 4.12738 6.15104 4.86213 -6.07614 -9.82712e-007 7.55202 -7.58201 -6.86088e-006 -20.2818 5.83931e-006 
